<?xml version="1.0" encoding="UTF-8"?>
<svg width="202px" height="130px" viewBox="0 0 202 130" version="1.1" xmlns="http://www.w3.org/2000/svg" xmlns:xlink="http://www.w3.org/1999/xlink">
    <!-- Generator: Sketch 59.1 (86144) - https://sketch.com -->
    <title>DL</title>
    <desc>Created with Sketch.</desc>
    <g id="Page-4" stroke="none" stroke-width="1" fill="none" fill-rule="evenodd">
        <g id="Artboard" transform="translate(-59.000000, -60.000000)">
            <g id="Rectangle" transform="translate(60.000000, 61.000000)">
                <g id="DL">
                    <g>
                        <rect id="Rectangle" stroke="#7F8FA4" stroke-width="1" fill="#7F8FA4" fill-rule="evenodd" opacity="0.61328125" x="0" y="0" width="200" height="128" rx="10"></rect>
                        <path d="M14.3165468,30.2022472 L187.122302,30.2022472 C192.64515,30.2022472 197.122302,34.6793997 197.122302,40.2022472 L197.122302,113.685393 C197.122302,119.208241 192.64515,123.685393 187.122302,123.685393 L14.3165468,123.685393 C8.79369926,123.685393 4.31654676,119.208241 4.31654676,113.685393 L4.31654676,40.2022472 C4.31654676,34.6793997 8.79369926,30.2022472 14.3165468,30.2022472 Z" id="Rectangle" fill="#FFFFFF" fill-rule="evenodd"></path>
                        <path d="M6.31654676,30.2022472 L195.122302,30.2022472 C196.226872,30.2022472 197.122302,31.0976777 197.122302,32.2022472 L197.122302,101.550562 C197.122302,102.655131 196.226872,103.550562 195.122302,103.550562 L6.31654676,103.550562 C5.21197726,103.550562 4.31654676,102.655131 4.31654676,101.550562 L4.31654676,32.2022472 C4.31654676,31.0976777 5.21197726,30.2022472 6.31654676,30.2022472 Z" id="Rectangle" fill="#FFFFFF" fill-rule="evenodd"></path>
                        <path d="M62.0828579,110.894988 L18.8828579,110.894988 C16.2317951,110.894988 14.0828579,108.124775 14.0828579,104.70734 L14.0828579,49.0185032 C14.0828579,45.6010621 16.2317951,42.8308547 18.8828579,42.8308547 L62.0828579,42.8308547 C64.7338727,42.8308547 66.8828579,45.6010621 66.8828579,49.0185032 L66.8828579,104.70734 C66.8828579,108.124775 64.7338727,110.894988 62.0828579,110.894988 Z" id="Path" fill="#7F8FA4" fill-rule="nonzero"></path>
                        <path d="M61.8,114.4 L19.8,114.4 C15.9399739,114.4 12.8,110.22832 12.8,105.1 L12.8,49.3 C12.8,44.1716796 15.9399739,40 19.8,40 L61.8,40 C65.6600261,40 68.8,44.1716796 68.8,49.3 L68.8,105.1 C68.8,110.22832 65.6600261,114.4 61.8,114.4 Z M19.92,46.4 C18.6399219,46.4 17.6,47.8000392 17.6,49.52 L17.6,105.68 C17.6,107.399961 18.6399219,108.8 19.92,108.8 L61.68,108.8 C62.9600781,108.8 64,107.399961 64,105.68 L64,49.52 C64,47.8000392 62.9600781,46.4 61.68,46.4 L19.92,46.4 Z" id="Shape" fill="#7F8FA4" fill-rule="nonzero"></path>
                        <path d="M63.7444053,108.672082 L63.7255563,108.30902 C63.7255563,108.30902 62.1890794,105.010587 59.1360998,101.782358 C57.3766698,99.9216847 52.8035302,96.7437086 48.019394,95.6085963 C47.3159315,95.4414632 46.8068672,94.6310181 46.8375319,93.6762138 C46.8707287,92.6380311 46.8704473,91.536797 46.86679,90.3903915 C46.86679,87.7599271 49.2327648,84.5907969 49.3618948,80.8965525 C50.1483494,78.7112116 50.5988974,76.5362223 50.5988974,74.8552925 C50.5988974,73.7504822 50.3959188,73.0258624 50.0400378,72.5466722 C50.232748,71.1712119 50.3976067,69.7167019 50.5988974,68.2187149 C51.4089836,62.197782 49.8381845,57.8581554 45.8863594,55.9801663 C44.4605854,55.3025994 36.0879602,55.8644153 35.3650859,56.2993754 C31.4918923,58.6296403 29.9565405,62.2523637 30.7591714,68.2187149 C30.9606027,69.7167019 31.1254614,71.1712119 31.3180311,72.5466722 C30.9622909,73.0258624 30.7591714,73.7504825 30.7591714,74.8552925 C30.7591714,76.5362226 31.2097194,78.7112116 31.9963146,80.8965525 C32.1254446,84.5907966 34.4912788,87.5754782 34.4912788,90.3903915 C34.4876215,91.5367966 34.487481,92.6380308 34.5206775,93.6762138 C34.5512016,94.6310181 34.0421373,95.4414632 33.3388154,95.6085963 C28.5545387,96.7437086 24.7144011,99.6764432 22.2221096,101.782358 C18.4008213,105.010587 17.6326531,108.30902 17.6326531,108.30902 L17.6700699,108.713113 C18.3420235,109.22524 19.1086444,109.54125 19.9372982,109.54125 L61.4209112,109.54125 L63.7444053,108.672082 Z" id="Path" fill="#C1E3F7" fill-rule="nonzero"></path>
                        <path d="M61.470897,114.579435 L19.106807,114.579435 C17.9093411,114.579435 16.7049801,114.14961 15.627031,113.335525 C14.9834793,112.851023 14.5513804,111.994411 14.457146,111.025407 L14.4180731,110.618364 C14.376702,110.176389 14.4065811,109.726819 14.5054123,109.301551 C14.613437,108.848944 15.6775959,104.772443 20.1824579,101.011855 C22.7704552,98.8536182 26.7191047,95.8888901 31.6238879,94.5447383 C31.6123959,93.7701425 31.6146944,92.9636512 31.6169927,92.1343781 C31.6169927,91.5587469 31.1527162,90.3831836 30.7413027,89.3458325 C30.1000495,87.7191811 29.3116985,85.7280139 29.1117379,83.3860002 C28.265927,80.916406 27.8039488,78.4832633 27.8039488,76.4814643 C27.8039488,75.3560219 27.9533448,74.3611978 28.2521366,73.5061044 C28.2015717,73.1203254 28.1510069,72.7284708 28.1004423,72.3335789 L27.8407231,70.3408928 C26.9213635,63.5715317 28.6336709,58.6050046 32.9316768,55.5552227 C32.9477655,55.224121 32.9615559,54.8641615 32.9730479,54.5938126 C33.0534919,52.5039223 46.0141637,54.3310576 46.3933997,54.5102779 C51.4705631,56.8917808 53.7827523,62.6617614 52.7369809,70.3378553 L52.4772617,72.3335792 C52.4266969,72.7284711 52.376132,73.1203257 52.3255674,73.5061047 C52.6243592,74.3611978 52.7737553,75.3560223 52.7737553,76.4814646 C52.7737553,78.4832636 52.311777,80.916406 51.4659662,83.3860005 C51.2637071,85.7568715 50.4638643,87.8072726 49.8111189,89.4825262 C49.4525685,90.4014098 48.9607113,91.6605077 48.9607113,92.1510854 C48.9630098,92.9682081 48.9653081,93.7701428 48.9538161,94.5447386 C54.1436009,95.9678687 58.8024557,99.3274891 60.5975053,101.201707 C63.9968373,104.752698 65.7482175,108.426713 65.8217663,108.580114 C66.0263238,109.014495 66.148139,109.509629 66.1734214,110.019951 L66.1918086,110.385985 C66.2492686,111.56003 65.8033791,112.676359 65.0380122,113.273254 C63.9393775,114.128347 62.7051374,114.579435 61.470897,114.579435 Z M20.0850106,107.883433 L58.6167488,107.883433 C58.0782088,107.157266 57.4442315,106.376294 56.7125442,105.602933 C55.1423707,103.940512 50.8181449,101.005396 46.5234593,99.9854129 C44.6737904,99.5439275 43.3353936,97.3288891 43.4126525,94.8322137 C43.444465,93.8228868 43.444465,92.7617997 43.4399204,91.6550416 C43.4399204,89.6333433 44.1307058,87.8399995 44.7987681,86.1045056 C45.3486696,84.6750066 45.9167499,83.1967919 45.9621962,81.8951713 C45.9758302,81.4765216 46.0553614,81.0654833 46.1894281,80.6879374 C46.8279503,78.9098172 47.2097001,77.131697 47.2097001,75.9320749 C47.2097001,75.7828832 47.2028831,75.6793626 47.1960661,75.6123785 C46.7438744,74.8999126 46.5529994,73.9469132 46.6847939,73.0197939 C46.7870483,72.2829702 46.8824857,71.5217884 46.9801955,70.7438609 L47.246057,68.6658352 C48.0777264,62.486563 45.7917719,60.6384143 43.9989111,59.7858909 C43.7080541,59.6473558 43.2013267,59.4829405 42.5718939,59.2682875 C40.5540734,58.5832239 38.5089848,57.8342215 36.7592981,56.826417 C36.5684233,58.1995887 36.1503161,59.387032 35.1095934,60.0127233 C32.0896794,61.8334697 31.1921128,64.1794314 31.7942778,68.6704028 L32.0601393,70.7438615 C32.1578491,71.5217891 32.2532865,72.2829706 32.3555409,73.0197946 C32.4873354,73.9469138 32.2964606,74.899913 31.8442687,75.6123792 C31.8374517,75.6793632 31.8306347,75.7828838 31.8306347,75.9320755 C31.8306347,77.1316976 32.2123845,78.9098178 32.8509067,80.687938 C32.9849736,81.0654842 33.0645049,81.4765222 33.0781386,81.8951719 C33.1213127,83.1572111 33.6484911,84.5090695 34.207482,85.9385685 C34.8914504,87.6968978 35.6004144,89.5130773 35.6004144,91.6382962 C35.5958698,92.7618004 35.5958698,93.8228874 35.6276824,94.8246025 C35.7049412,97.32889 34.3665445,99.5439284 32.5168755,99.9838914 C28.1744712,101.016054 24.684187,103.629951 22.1278262,105.793229 C21.2688896,106.519396 20.6008273,107.233384 20.0850106,107.883433 Z" id="Shape" fill="#C2E4F8" fill-rule="nonzero"></path>
                        <path d="M165.432197,49.8696629 L77.2544197,49.8696629 C74.208239,49.8696629 74.208239,42.6696629 77.2544197,42.6696629 L165.432197,42.6696629 C168.478378,42.6696629 168.478378,49.8696629 165.432197,49.8696629 Z" id="Path" fill="#7F8FA4" fill-rule="nonzero"></path>
                        <path d="M165.432197,60.2696629 L77.2544197,60.2696629 C74.208239,60.2696629 74.208239,53.0696629 77.2544197,53.0696629 L165.432197,53.0696629 C168.478378,53.0696629 168.478378,60.2696629 165.432197,60.2696629 Z" id="Path" fill="#7F8FA4" fill-rule="nonzero"></path>
                        <path d="M165.432197,70.6696629 L77.2544197,70.6696629 C74.208239,70.6696629 74.208239,63.4696629 77.2544197,63.4696629 L165.432197,63.4696629 C168.478378,63.4696629 168.478378,70.6696629 165.432197,70.6696629 Z" id="Path" fill="#7F8FA4" fill-rule="nonzero"></path>
                        <path d="M134.272099,88.2696629 L76.4674689,88.2696629 C74.4705559,88.2696629 74.4705559,81.0696629 76.4674689,81.0696629 L134.272099,81.0696629 C136.269012,81.0696629 136.269012,88.2696629 134.272099,88.2696629 Z" id="Path" fill="#7F8FA4" fill-rule="nonzero"></path>
                        <path d="M134.272099,98.6696629 L76.4674689,98.6696629 C74.4705559,98.6696629 74.4705559,91.4696629 76.4674689,91.4696629 L134.272099,91.4696629 C136.269012,91.4696629 136.269012,98.6696629 134.272099,98.6696629 Z" id="Path" fill="#7F8FA4" fill-rule="nonzero"></path>
                        <text id="DRIVER-LICENSE" font-family="HelveticaNeue-Medium, Helvetica Neue" font-size="14" font-weight="400" fill="#FFFFFF">
                            <tspan x="54.1697842" y="20.5696629">DRIVER LICENSE</tspan>
                        </text>
                        <path d="M106.181529,109.069663 L75.7580393,109.069663 C74.7070325,109.069663 74.7070325,101.869663 75.7580393,101.869663 L106.181529,101.869663 C107.232536,101.869663 107.232536,109.069663 106.181529,109.069663 Z" id="Path" fill="#7F8FA4" fill-rule="nonzero"></path>
                    </g>
                </g>
            </g>
        </g>
    </g>
</svg>