<?xml version="1.0" encoding="UTF-8"?>
<svg width="113px" height="150px" viewBox="0 0 113 150" version="1.1" xmlns="http://www.w3.org/2000/svg" xmlns:xlink="http://www.w3.org/1999/xlink">
    <!-- Generator: Sketch 59.1 (86144) - https://sketch.com -->
    <title>Selfie</title>
    <desc>Created with Sketch.</desc>
    <g id="Page-4" stroke="none" stroke-width="1" fill="none" fill-rule="evenodd">
        <g id="Stripe-Checkout" transform="translate(-344.000000, -149.000000)" fill-rule="nonzero">
            <g id="DL" transform="translate(344.000000, 148.000000)">
                <g id="Selfie">
                    <path d="M99.0261474,142.85065 L12.6261474,142.85065 C7.32402176,142.85065 3.02614736,137.310224 3.02614736,130.475353 L3.02614736,19.0976805 C3.02614736,12.2627984 7.32402176,6.72238354 12.6261474,6.72238354 L99.0261474,6.72238354 C104.328177,6.72238354 108.626147,12.2627984 108.626147,19.0976805 L108.626147,130.475353 C108.626147,137.310224 104.328177,142.85065 99.0261474,142.85065 Z" id="Path" fill="#7F8FA4"></path>
                    <path d="M98.4604317,149.860674 L14.4604317,149.860674 C6.74037945,149.860674 0.460431655,141.517315 0.460431655,131.260674 L0.460431655,19.6606742 C0.460431655,9.40403338 6.74037945,1.06067416 14.4604317,1.06067416 L98.4604317,1.06067416 C106.180484,1.06067416 112.460432,9.40403338 112.460432,19.6606742 L112.460432,131.260674 C112.460432,141.517315 106.180484,149.860674 98.4604317,149.860674 Z M14.7004317,13.8606742 C12.1402755,13.8606742 10.0604317,16.6607525 10.0604317,20.1006742 L10.0604317,132.420674 C10.0604317,135.860596 12.1402755,138.660674 14.7004317,138.660674 L98.2204317,138.660674 C100.780588,138.660674 102.860432,135.860596 102.860432,132.420674 L102.860432,20.1006742 C102.860432,16.6607525 100.780588,13.8606742 98.2204317,13.8606742 L14.7004317,13.8606742 Z" id="Shape" fill="#7F8FA4"></path>
                    <path d="M102.349242,138.404839 L102.311544,137.678713 C102.311544,137.678713 99.2385904,131.081849 93.1326312,124.625391 C89.6137713,120.904044 80.467492,114.548091 70.8992197,112.277867 C69.4922947,111.943601 68.474166,110.32271 68.5354954,108.413102 C68.601889,106.336736 68.6013262,104.134268 68.5940117,101.841457 C68.5940117,96.5805284 73.3259613,90.242268 73.5842212,82.8537791 C75.1571305,78.4830973 76.0582264,74.1331188 76.0582264,70.7712592 C76.0582264,68.5616386 75.6522692,67.112399 74.9405072,66.1540186 C75.3259277,63.4030979 75.655645,60.494078 76.0582264,57.4981039 C77.6783989,45.4562381 74.5368006,36.7769849 66.6331505,33.0210067 C63.7816024,31.665873 47.0363521,32.7895048 45.5906035,33.6594249 C37.8442163,38.3199548 34.7735127,45.5654016 36.3787745,57.4981039 C36.7816371,60.494078 37.1113544,63.4030979 37.4964938,66.1540186 C36.7850134,67.112399 36.3787745,68.5616392 36.3787745,70.7712592 C36.3787745,74.1331194 37.2798705,78.4830973 38.8530609,82.8537791 C39.1113209,90.2422673 43.8429892,96.2116307 43.8429892,101.841457 C43.8356747,104.134267 43.8353936,106.336736 43.9017867,108.413102 C43.9628349,110.32271 42.9447063,111.943601 41.5380624,112.277867 C31.969509,114.548091 24.2892338,120.413561 19.3046509,124.625391 C11.6620742,131.081848 10.1257378,137.678713 10.1257378,137.678713 L10.2005714,138.4869 C11.5444787,139.511155 13.0777204,140.143174 14.7350281,140.143174 L97.702254,140.143174 L102.349242,138.404839 Z" id="Path" fill="#C1E3F7"></path>
                    <path d="M97.8022257,150.219544 L13.0740457,150.219544 C10.6791138,150.219544 8.27039187,149.359895 6.11449368,147.731725 C4.82739025,146.76272 3.96319247,145.049497 3.77472358,143.111487 L3.69657784,142.297402 C3.61383559,141.413452 3.67359391,140.514313 3.87125628,139.663776 C4.08730561,138.758562 6.21562336,130.60556 15.2253474,123.084385 C20.401342,118.76791 28.298641,112.838454 38.1082075,110.150151 C38.0852236,108.600959 38.0898205,106.987977 38.094417,105.32943 C38.094417,104.178168 37.165864,101.827041 36.3430371,99.7523392 C35.0605306,96.4990363 33.4838286,92.5167019 33.0839074,87.8326745 C31.3922857,82.8934862 30.4683292,78.0272008 30.4683292,74.0236027 C30.4683292,71.7727181 30.7671212,69.7830697 31.3647048,68.072883 C31.2635751,67.3013249 31.1624455,66.5176158 31.0613163,65.7278319 L30.5418779,61.7424597 C28.7031587,48.2037376 32.1277734,38.2706834 40.7237852,32.1711196 C40.7559626,31.5089161 40.7835435,30.7889972 40.8065275,30.2482993 C40.9674155,26.0685187 66.888759,29.7227894 67.6472311,30.08123 C77.8015579,34.8442357 82.4259363,46.3841969 80.3343934,61.7363848 L79.8149551,65.7278325 C79.7138254,66.5176164 79.6126957,67.3013255 79.5115665,68.0728836 C80.1091502,69.7830697 80.4079422,71.7727187 80.4079422,74.0236034 C80.4079422,78.0272014 79.4839856,82.8934862 77.792364,87.8326751 C77.3878458,92.5744172 75.7881603,96.6752195 74.4826694,100.025727 C73.7655687,101.863494 72.7818543,104.38169 72.7818543,105.362845 C72.7864513,106.99709 72.7910478,108.60096 72.7680639,110.150151 C83.1476335,112.996412 92.4653431,119.715652 96.0554422,123.464089 C102.854106,130.566071 106.356867,137.914101 106.503964,138.220901 C106.913079,139.089664 107.15671,140.079931 107.207274,141.100575 L107.244049,141.832645 C107.358969,144.180734 106.46719,146.413392 104.936456,147.607182 C102.739187,149.317368 100.270706,150.219544 97.8022257,150.219544 Z M15.0304528,136.82754 L92.0939292,136.82754 C91.0168493,135.375205 89.7488947,133.813261 88.28552,132.26654 C85.145173,128.941699 76.4967215,123.071466 67.9073502,121.0315 C64.2080124,120.148529 61.5312189,115.718452 61.6857366,110.725101 C61.7493617,108.706448 61.7493617,106.584274 61.7402725,104.370757 C61.7402725,100.327361 63.1218433,96.7406732 64.4579679,93.2696854 C65.5577709,90.4106873 66.6939315,87.454258 66.7848241,84.8510167 C66.812092,84.0137173 66.9711545,83.1916408 67.2392879,82.4365489 C68.5163322,78.8803086 69.2798319,75.3240682 69.2798319,72.924824 C69.2798319,72.6264406 69.2661979,72.4193993 69.2525639,72.2854312 C68.3481806,70.8604994 67.9664305,68.9545005 68.2300195,67.1002621 C68.4345283,65.6266147 68.6254031,64.104251 68.8208227,62.548396 L69.3525457,58.3923445 C71.0158844,46.0338003 66.4439755,42.3375027 62.8582538,40.6324559 C62.2765398,40.3553858 61.263085,40.0265552 60.0042195,39.5972491 C55.9685784,38.2271221 51.8784013,36.7291172 48.3790279,34.7135082 C47.9972783,37.4598515 47.1610639,39.8347382 45.0796185,41.0861208 C39.0397905,44.7276136 37.2446572,49.4195369 38.4489873,58.4014797 L38.9807102,62.5483972 C39.1761298,64.1042523 39.3670046,65.6266153 39.5715134,67.1002633 C39.8351025,68.9545018 39.4533528,70.8605001 38.548969,72.2854325 C38.535335,72.4194006 38.521701,72.6264418 38.521701,72.9248252 C38.521701,75.3240694 39.2852007,78.8803098 40.562245,82.4365502 C40.8303789,83.1916426 40.9894414,84.0137185 41.0167089,84.851018 C41.1030571,87.3750964 42.1574138,90.0788131 43.2753956,92.9378112 C44.6433325,96.4544698 46.0612604,100.086829 46.0612604,104.337267 C46.0521713,106.584275 46.0521713,108.706449 46.1157964,110.709879 C46.270314,115.718454 43.5935206,120.148531 39.8941827,121.028457 C31.2093741,123.092782 24.2288056,128.320577 19.1160841,132.647132 C17.3982109,134.099465 16.0620863,135.527442 15.0304528,136.82754 Z" id="Shape" fill="#C2E4F8"></path>
                </g>
            </g>
        </g>
    </g>
</svg>